<svg width="82" height="108" viewBox="0 0 82 108" fill="none" xmlns="http://www.w3.org/2000/svg">
<path d="M34.7639 62.1541C29.9288 66.6916 25.904 72.5161 26.206 73.5768C26.5079 74.6375 27.4223 75.0587 27.4223 75.0587L28.9121 75.9321L30.4327 76.8157L32.241 77.8431L33.9089 78.5829C33.9089 78.5829 34.3199 78.7678 35.4143 79.1425C36.5087 79.5171 35.0047 74.1407 36.849 69.1194C38.1634 65.5407 40.4329 60.3781 49.2624 62.2181C58.092 64.0582 64.7466 57.2612 66.3168 54.1843C63.2808 55.2614 60.8805 56.8399 56.6493 55.2858C45.9058 50.989 43.3772 53.4801 42.5764 54.0628C42.5236 52.2897 41.3176 48.8527 39.3807 47.1894C31.3512 40.2943 29.3084 38.6672 27.7295 34.5798C24.0746 41.6553 28.5576 49.4983 31.256 52.5354C35.3111 56.8308 35.6152 59.8362 34.7639 62.1541Z" fill="#A7CBEC"/>
<g style="mix-blend-mode:screen">
<path d="M82 98.7295C82 103.349 63.6437 107.093 41 107.093C18.3563 107.093 0 103.349 0 98.7295C0 94.1102 18.3563 90.3655 41 90.3655C63.6437 90.3655 82 94.1102 82 98.7295Z" fill="url(#paint0_radial_2914_901)" fill-opacity="0.5"/>
</g>
<path d="M31.6226 82.1986L9.34912 76.5393L17.6453 88.6868L27.0592 94.8987L42.8311 98.0712L56.8187 94.2335L70.0371 81.2878L74.7851 68.6696L68.8373 65.7632L57.2186 66.5921L48.6353 71.2894L31.6226 82.1986Z" fill="#A7CBEC"/>
<path d="M60.1882 42.8049C60.1882 44.9787 58.426 46.7409 56.2522 46.7409C54.0784 46.7409 52.3162 44.9787 52.3162 42.8049C52.3162 40.6311 54.0784 38.8689 56.2522 38.8689C58.426 38.8689 60.1882 40.6311 60.1882 42.8049Z" fill="white"/>
<path d="M53.3017 33.8647C53.3017 34.9969 52.3838 35.9147 51.2517 35.9147C50.1195 35.9147 49.2017 34.9969 49.2017 33.8647C49.2017 32.7325 50.1195 31.8147 51.2517 31.8147C52.3838 31.8147 53.3017 32.7325 53.3017 33.8647Z" fill="#A7CBEC"/>
<path d="M10.6604 75.1072C22.7752 83.5419 36.8243 83.7381 44.1613 75.1072C39.2274 71.2284 24.4894 66.1101 10.6604 75.1072Z" fill="white"/>
<path fill-rule="evenodd" clip-rule="evenodd" d="M61.0305 67.7068C55.4444 68.5316 49.4745 71.0528 45.1834 76.0899C37.1614 85.5065 22.1753 84.9754 9.73202 76.3305L8.03491 75.1515L9.76834 74.0261C17.0111 69.3241 24.5041 68.3092 30.8169 68.9775C36.343 69.5626 41.0274 71.4443 43.9141 73.3352C48.657 68.306 54.8936 65.8032 60.6217 64.9575C63.6659 64.508 66.5987 64.5209 69.1369 64.885C71.6515 65.2456 73.8782 65.9657 75.4389 67.0108L73.8834 69.3177C72.7967 68.5901 71.0225 67.9635 68.7396 67.636C66.4804 67.3119 63.8194 67.2951 61.0305 67.7068ZM42.0012 75.4157C39.4922 73.8709 35.4113 72.259 30.5222 71.7414C25.2805 71.1864 19.1755 71.8961 13.1434 75.2411C23.9014 81.8795 35.4173 81.7787 42.0012 75.4157Z" fill="white"/>
<path fill-rule="evenodd" clip-rule="evenodd" d="M41.0818 95.9435C58.702 95.9435 72.986 81.6454 72.986 64.0078C72.986 55.4267 68.1881 47.5064 61.1102 37.5176C60.1838 36.2102 59.2231 34.873 58.2376 33.5015C52.715 25.8152 46.4159 17.0483 41.0372 6.38394C35.6659 16.7172 29.5497 25.2841 24.1727 32.8157C23.0322 34.4133 21.9249 35.9642 20.8651 37.4756C13.8671 47.4548 9.17748 55.4092 9.17748 64.0078C9.17748 81.6454 23.4615 95.9435 41.0818 95.9435ZM39.5117 3.252C34.031 14.2117 27.6367 23.1709 21.9365 31.1577C13.3852 43.1393 6.39575 52.9324 6.39575 64.0078C6.39575 83.1832 21.9252 98.728 41.0818 98.728C60.2383 98.728 75.7678 83.1832 75.7678 64.0078C75.7678 53.1366 68.8656 43.5272 60.48 31.8525C54.63 23.7079 48.058 14.5581 42.6038 3.27351C42.0858 2.20192 41.578 1.11107 41.0818 0C40.568 1.10351 40.0441 2.1872 39.5117 3.252Z" fill="#A7CBEC"/>
<path d="M27.1834 80.5213C17.0662 80.5213 12.7467 75.8769 9.51294 73.3815C15.1259 94.1077 36.469 97.1578 42.082 97.7123C47.6949 98.2669 62.1084 91.4043 67.3749 85.0963C71.5881 80.0499 73.1958 70.3314 73.4729 66.103C63.7022 61.6419 50.1896 66.103 44.9231 71.9258C40.339 76.994 37.3005 80.5213 27.1834 80.5213Z" fill="#A7CBEC"/>
<path fill-rule="evenodd" clip-rule="evenodd" d="M57.5836 65.1315C52.3239 66.4157 47.6332 68.9832 45.0063 71.8836C44.938 71.959 44.87 72.0341 44.8024 72.1088C42.5965 74.5456 40.7165 76.6224 38.1805 78.1001C35.5642 79.6244 32.2554 80.5085 27.1777 80.5085C22.0969 80.5085 18.4689 79.3436 15.7044 77.8641C13.5958 76.7357 11.9886 75.423 10.6279 74.3115C10.2669 74.0167 9.92332 73.736 9.59228 73.4767C12.4306 83.7002 19.1238 89.5803 25.8203 92.9767C32.5622 96.3962 39.3054 97.2969 42.1145 97.5741C43.507 97.7115 45.4539 97.3895 47.6789 96.7258C49.9021 96.0626 52.3962 95.0605 54.8804 93.8435C59.8508 91.4084 64.771 88.1185 67.4005 84.9731C69.5019 82.4596 70.9569 78.7772 71.9213 75.1888C72.878 71.6288 73.3497 68.1694 73.4922 66.0532C68.624 63.8492 62.8268 63.8513 57.5836 65.1315ZM57.5506 64.9967C62.8294 63.7079 68.6795 63.7062 73.5935 65.9468L73.6371 65.9667L73.634 66.0145C73.4948 68.1344 73.0219 71.6283 72.0554 75.2248C71.0893 78.8197 69.6278 82.5254 67.5071 85.0621C64.8592 88.2294 59.9186 91.5297 54.9415 93.968C52.4519 95.1877 49.9506 96.1929 47.7187 96.8587C45.4886 97.5239 43.5207 97.8522 42.1008 97.7121C39.2851 97.4343 32.5219 96.5314 25.7574 93.1005C18.9913 89.6687 12.2218 83.7064 9.40308 73.312L9.34912 73.113L9.51252 73.239C9.89862 73.5365 10.2992 73.8637 10.7224 74.2093C12.0818 75.3196 13.6745 76.6204 15.77 77.7418C18.5146 79.2106 22.1201 80.3697 27.1777 80.3697C32.2385 80.3697 35.5213 79.4888 38.1105 77.9802C40.6276 76.5136 42.4945 74.4513 44.7058 72.0087C44.7713 71.9363 44.8371 71.8636 44.9033 71.7905C47.5539 68.8639 52.2725 66.2855 57.5506 64.9967Z" fill="#A7CBEC"/>
<defs>
<radialGradient id="paint0_radial_2914_901" cx="0" cy="0" r="1" gradientUnits="userSpaceOnUse" gradientTransform="translate(39.1341 98.7741) rotate(90) scale(8.31934 40.7811)">
<stop stop-color="white"/>
<stop offset="1" stop-opacity="0"/>
</radialGradient>
</defs>
</svg>
