<svg width="82" height="134" viewBox="0 0 82 134" fill="none" xmlns="http://www.w3.org/2000/svg">
<path d="M12.8536 110.81C13.6146 110.81 14.287 110.995 14.8707 111.363C15.4618 111.724 15.9162 112.229 16.2339 112.878C16.559 113.526 16.7215 114.259 16.7215 115.077C16.7215 115.917 16.474 116.695 15.979 117.41C15.4913 118.117 14.8817 118.681 14.1503 119.101C13.4262 119.514 12.7317 119.72 12.0667 119.72C11.7268 119.72 11.3832 119.702 11.036 119.665C10.467 119.628 10.0274 119.609 9.71709 119.609H8.30956V119.267L9.35136 118.449V111.728L8.19873 111.352L8.42039 110.91H9.70601C10.4079 110.91 11.0914 110.888 11.7564 110.844C12.2588 110.814 12.6245 110.799 12.8536 110.799V110.81ZM12.377 118.902C12.909 118.902 13.3929 118.762 13.8289 118.482C14.2648 118.195 14.6047 117.8 14.8485 117.299C15.0997 116.791 15.2253 116.223 15.2253 115.597C15.2253 114.845 15.1071 114.164 14.8707 113.552C14.6342 112.933 14.2722 112.439 13.7845 112.071C13.3043 111.702 12.7058 111.518 11.9891 111.518C11.5384 111.518 11.1209 111.651 10.7367 111.916V118.626C11.1874 118.81 11.7342 118.902 12.377 118.902Z" fill="white"/>
<path d="M21.3395 119.598H17.9703V119.256L19.012 118.438V111.739L17.8594 111.352L18.0811 110.91H21.4503V111.253L20.3974 112.071V118.758L21.5611 119.156L21.3395 119.598Z" fill="white"/>
<path d="M27.1313 110.81C27.8924 110.81 28.5647 110.995 29.1484 111.363C29.7395 111.724 30.1939 112.229 30.5116 112.878C30.8367 113.526 30.9993 114.259 30.9993 115.077C30.9993 115.917 30.7518 116.695 30.2567 117.41C29.7691 118.117 29.1595 118.681 28.428 119.101C27.704 119.514 27.0094 119.72 26.3445 119.72C26.0046 119.72 25.661 119.702 25.3137 119.665C24.7448 119.628 24.3052 119.609 23.9949 119.609H22.5873V119.267L23.6291 118.449V111.728L22.4765 111.352L22.6982 110.91H23.9838C24.6857 110.91 25.3692 110.888 26.0341 110.844C26.5366 110.814 26.9023 110.799 27.1313 110.799V110.81ZM26.6548 118.902C27.1868 118.902 27.6707 118.762 28.1066 118.482C28.5426 118.195 28.8824 117.8 29.1263 117.299C29.3775 116.791 29.5031 116.223 29.5031 115.597C29.5031 114.845 29.3849 114.164 29.1484 113.552C28.912 112.933 28.55 112.439 28.0623 112.071C27.5821 111.702 26.9836 111.518 26.2669 111.518C25.8162 111.518 25.3987 111.651 25.0145 111.916V118.626C25.4652 118.81 26.012 118.902 26.6548 118.902Z" fill="white"/>
<path d="M41.0036 119.598H37.6343V119.256L38.6761 118.449L37.8227 116.404H34.0989L33.1901 118.493L35.1407 119.156L34.919 119.598H31.5498V119.256L32.5916 118.438L35.7281 111.264L36.8807 110.7L40.1169 118.482L41.2252 119.156L41.0036 119.598ZM36.0051 112.026L34.3205 115.906H37.6233L36.0051 112.026Z" fill="white"/>
<path d="M46.2471 110.81C47.0081 110.81 47.6805 110.995 48.2642 111.363C48.8553 111.724 49.3097 112.229 49.6274 112.878C49.9525 113.526 50.115 114.259 50.115 115.077C50.115 115.917 49.8675 116.695 49.3725 117.41C48.8848 118.117 48.2753 118.681 47.5438 119.101C46.8197 119.514 46.1252 119.72 45.4602 119.72C45.1203 119.72 44.7767 119.702 44.4295 119.665C43.8606 119.628 43.4209 119.609 43.1106 119.609H41.7031V119.267L42.7449 118.449V111.728L41.5922 111.352L41.8139 110.91H43.0995C43.8014 110.91 44.4849 110.888 45.1499 110.844C45.6523 110.814 46.018 110.799 46.2471 110.799V110.81ZM45.7705 118.902C46.3025 118.902 46.7865 118.762 47.2224 118.482C47.6583 118.195 47.9982 117.8 48.242 117.299C48.4932 116.791 48.6188 116.223 48.6188 115.597C48.6188 114.845 48.5006 114.164 48.2642 113.552C48.0277 112.933 47.6657 112.439 47.1781 112.071C46.6978 111.702 46.0993 111.518 45.3826 111.518C44.9319 111.518 44.5145 111.651 44.1302 111.916V118.626C44.5809 118.81 45.1277 118.902 45.7705 118.902Z" fill="white"/>
<path d="M54.733 119.598H51.3638V119.256L52.4056 118.438V111.739L51.2529 111.352L51.4746 110.91H54.8438V111.253L53.7909 112.071V118.758L54.9546 119.156L54.733 119.598Z" fill="white"/>
<path d="M60.5249 110.81C61.2859 110.81 61.9583 110.995 62.542 111.363C63.133 111.724 63.5874 112.229 63.9052 112.878C64.2303 113.526 64.3928 114.259 64.3928 115.077C64.3928 115.917 64.1453 116.695 63.6502 117.41C63.1626 118.117 62.553 118.681 61.8216 119.101C61.0975 119.514 60.4029 119.72 59.738 119.72C59.3981 119.72 59.0545 119.702 58.7073 119.665C58.1383 119.628 57.6987 119.609 57.3884 119.609H55.9809V119.267L57.0226 118.449V111.728L55.87 111.352L56.0917 110.91H57.3773C58.0792 110.91 58.7627 110.888 59.4276 110.844C59.9301 110.814 60.2958 110.799 60.5249 110.799V110.81ZM60.0483 118.902C60.5803 118.902 61.0642 118.762 61.5002 118.482C61.9361 118.195 62.276 117.8 62.5198 117.299C62.771 116.791 62.8966 116.223 62.8966 115.597C62.8966 114.845 62.7784 114.164 62.542 113.552C62.3055 112.933 61.9435 112.439 61.4558 112.071C60.9756 111.702 60.3771 111.518 59.6604 111.518C59.2097 111.518 58.7922 111.651 58.408 111.916V118.626C58.8587 118.81 59.4055 118.902 60.0483 118.902Z" fill="white"/>
<path d="M74.3971 119.598H71.0279V119.256L72.0697 118.449L71.2163 116.404H67.4924L66.5836 118.493L68.5342 119.156L68.3125 119.598H64.9433V119.256L65.9851 118.438L69.1216 111.264L70.2742 110.7L73.5104 118.482L74.6187 119.156L74.3971 119.598ZM69.3987 112.026L67.7141 115.906H71.0168L69.3987 112.026Z" fill="white"/>
<path d="M15.1087 132.168H12.9976V131.954L13.6504 131.451L13.1157 130.175H10.7825L10.213 131.478L11.4352 131.892L11.2963 132.168H9.1853V131.954L9.83805 131.444L11.8032 126.968L12.5254 126.616L14.5531 131.471L15.2476 131.892L15.1087 132.168ZM11.9769 127.443L10.9213 129.864H12.9907L11.9769 127.443Z" fill="white"/>
<path d="M25.0327 133.478C24.3105 133.819 23.8128 133.989 23.5397 133.989C23.3684 133.989 23.1045 133.807 22.7481 133.444C22.3962 133.085 21.9958 132.646 21.5467 132.127C21.2365 132.246 20.9403 132.306 20.6579 132.306C20.1671 132.306 19.732 132.191 19.3524 131.961C18.9774 131.727 18.6857 131.402 18.4774 130.989C18.2691 130.575 18.1649 130.106 18.1649 129.582C18.1649 129.044 18.3223 128.547 18.6371 128.092C18.9519 127.632 19.3431 127.271 19.8107 127.009C20.2782 126.742 20.725 126.609 21.1509 126.609C21.6416 126.609 22.0745 126.726 22.4495 126.961C22.8291 127.195 23.123 127.519 23.3314 127.933C23.5397 128.347 23.6438 128.816 23.6438 129.34C23.6438 129.869 23.4911 130.359 23.1855 130.809C22.88 131.26 22.4934 131.621 22.0259 131.892C22.461 132.219 22.8684 132.513 23.248 132.775C23.6323 133.037 23.8661 133.168 23.9494 133.168H24.8869L25.0327 133.478ZM19.1093 129.251C19.1093 129.701 19.1811 130.115 19.3246 130.492C19.4681 130.864 19.6857 131.163 19.9773 131.389C20.2736 131.614 20.637 131.727 21.0676 131.727C21.3731 131.727 21.6509 131.639 21.9009 131.465C22.1555 131.285 22.3545 131.039 22.4981 130.727C22.6416 130.409 22.7133 130.055 22.7133 129.664C22.7133 129.209 22.6416 128.795 22.4981 128.423C22.3545 128.046 22.137 127.747 21.8453 127.526C21.5537 127.301 21.1902 127.188 20.7551 127.188C20.4495 127.188 20.1695 127.278 19.9148 127.457C19.6648 127.632 19.4681 127.878 19.3246 128.195C19.1811 128.508 19.1093 128.86 19.1093 129.251Z" fill="white"/>
<path d="M31.9262 127.471V130.03C31.9262 130.513 31.8082 130.927 31.5721 131.271C31.3406 131.616 31.0536 131.876 30.711 132.051C30.3684 132.221 30.0328 132.306 29.7041 132.306C29.2921 132.306 28.9217 132.216 28.593 132.037C28.269 131.853 28.0143 131.602 27.8292 131.285C27.6486 130.963 27.5583 130.602 27.5583 130.202V127.264L26.8362 127.023L26.975 126.747H29.0861V126.961L28.4264 127.471V129.871C28.4264 130.455 28.5699 130.91 28.8569 131.237C29.1486 131.563 29.5884 131.727 30.1763 131.727C30.3939 131.727 30.6068 131.658 30.8152 131.52C31.0281 131.377 31.2017 131.17 31.336 130.899C31.4748 130.628 31.5443 130.308 31.5443 129.94V127.381L30.8221 127.023L30.961 126.747H32.5859V126.961L31.9262 127.471Z" fill="white"/>
<path d="M41.1303 132.168H39.0192V131.954L39.672 131.451L39.1373 130.175H36.8041L36.2346 131.478L37.4568 131.892L37.3179 132.168H35.2069V131.954L35.8596 131.444L37.8248 126.968L38.547 126.616L40.5747 131.471L41.2691 131.892L41.1303 132.168ZM37.9984 127.443L36.9429 129.864H39.0123L37.9984 127.443Z" fill="white"/>
<path d="M49.1863 132.182H47.8947L46.367 129.733L46.0406 129.499L46.1448 129.292H46.5336C46.8484 129.292 47.0961 129.214 47.2766 129.057C47.4618 128.896 47.5544 128.678 47.5544 128.402C47.5544 128.039 47.4526 127.738 47.2489 127.499C47.0452 127.255 46.7489 127.133 46.36 127.133C46.1008 127.133 45.8624 127.209 45.6448 127.361V131.658L46.3739 131.906L46.235 132.182H44.124V131.968L44.7768 131.458V127.264L44.0546 127.03L44.1934 126.754H44.999C45.4202 126.754 45.8346 126.74 46.242 126.712C46.5383 126.694 46.7582 126.685 46.9017 126.685C47.2118 126.685 47.4873 126.747 47.728 126.871C47.9734 126.995 48.1609 127.163 48.2905 127.374C48.4247 127.586 48.4919 127.818 48.4919 128.071C48.4919 128.301 48.4201 128.522 48.2766 128.733C48.1331 128.94 47.9433 129.122 47.7072 129.278C47.4757 129.43 47.2304 129.545 46.9711 129.623L47.4225 129.775L48.4988 131.499L49.3252 131.906L49.1863 132.182Z" fill="white"/>
<path d="M54.2735 132.168H52.1625V131.954L52.8153 131.444V127.264L52.0931 127.023L52.232 126.747H54.343V126.961L53.6833 127.471V131.644L54.4124 131.892L54.2735 132.168Z" fill="white"/>
<path d="M62.5551 127.471V130.03C62.5551 130.513 62.437 130.927 62.2009 131.271C61.9695 131.616 61.6824 131.876 61.3399 132.051C60.9973 132.221 60.6617 132.306 60.333 132.306C59.9209 132.306 59.5506 132.216 59.2219 132.037C58.8978 131.853 58.6432 131.602 58.458 131.285C58.2775 130.963 58.1872 130.602 58.1872 130.202V127.264L57.465 127.023L57.6039 126.747H59.7149V126.961L59.0552 127.471V129.871C59.0552 130.455 59.1987 130.91 59.4858 131.237C59.7774 131.563 60.2172 131.727 60.8052 131.727C61.0227 131.727 61.2357 131.658 61.444 131.52C61.657 131.377 61.8306 131.17 61.9648 130.899C62.1037 130.628 62.1732 130.308 62.1732 129.94V127.381L61.451 127.023L61.5899 126.747H63.2148V126.961L62.5551 127.471Z" fill="white"/>
<path d="M72.8424 132.175H70.7314V131.961L71.3842 131.451V127.637L69.5301 132.175H69.1481L67.3079 127.588V131.533L68.0371 131.899L67.8982 132.175H66.2733V131.961L66.926 131.451V127.409L66.2038 127.023L66.3427 126.747H67.8496L69.5856 131.078L71.3147 126.747H72.9119V126.961L72.2522 127.471V131.644L72.9813 131.899L72.8424 132.175Z" fill="white"/>
<path fill-rule="evenodd" clip-rule="evenodd" d="M77.5725 123.983H4.59253V123.819H77.5725V123.983Z" fill="#FFFAFA"/>
<path d="M34.7639 62.1541C29.9288 66.6916 25.904 72.5161 26.206 73.5768C26.5079 74.6375 27.4223 75.0587 27.4223 75.0587L28.9121 75.9321L30.4327 76.8157L32.241 77.8431L33.9089 78.5829C33.9089 78.5829 34.3199 78.7678 35.4143 79.1425C36.5087 79.5171 35.0047 74.1407 36.849 69.1194C38.1634 65.5407 40.4329 60.3781 49.2624 62.2181C58.092 64.0582 64.7466 57.2612 66.3168 54.1843C63.2808 55.2614 60.8805 56.8399 56.6493 55.2858C45.9058 50.989 43.3772 53.4801 42.5764 54.0628C42.5236 52.2897 41.3176 48.8527 39.3807 47.1894C31.3512 40.2943 29.3084 38.6672 27.7295 34.5798C24.0746 41.6553 28.5576 49.4983 31.256 52.5354C35.3111 56.8308 35.6152 59.8362 34.7639 62.1541Z" fill="#A7CBEC"/>
<g style="mix-blend-mode:screen">
<path d="M82 98.7295C82 103.349 63.6437 107.093 41 107.093C18.3563 107.093 0 103.349 0 98.7295C0 94.1102 18.3563 90.3655 41 90.3655C63.6437 90.3655 82 94.1102 82 98.7295Z" fill="url(#paint0_radial_2914_896)" fill-opacity="0.5"/>
</g>
<path d="M31.6226 82.1986L9.34912 76.5393L17.6453 88.6868L27.0592 94.8987L42.8311 98.0712L56.8187 94.2335L70.0371 81.2878L74.7851 68.6696L68.8373 65.7632L57.2186 66.5921L48.6353 71.2894L31.6226 82.1986Z" fill="#A7CBEC"/>
<path d="M60.1882 42.8049C60.1882 44.9787 58.426 46.7409 56.2522 46.7409C54.0784 46.7409 52.3162 44.9787 52.3162 42.8049C52.3162 40.6311 54.0784 38.8689 56.2522 38.8689C58.426 38.8689 60.1882 40.6311 60.1882 42.8049Z" fill="white"/>
<path d="M53.3017 33.8647C53.3017 34.9969 52.3838 35.9147 51.2517 35.9147C50.1195 35.9147 49.2017 34.9969 49.2017 33.8647C49.2017 32.7325 50.1195 31.8147 51.2517 31.8147C52.3838 31.8147 53.3017 32.7325 53.3017 33.8647Z" fill="#A7CBEC"/>
<path d="M10.6604 75.1072C22.7752 83.5419 36.8243 83.7381 44.1613 75.1072C39.2274 71.2284 24.4894 66.1101 10.6604 75.1072Z" fill="white"/>
<path fill-rule="evenodd" clip-rule="evenodd" d="M61.0305 67.7068C55.4444 68.5316 49.4745 71.0528 45.1834 76.0899C37.1614 85.5065 22.1753 84.9754 9.73202 76.3305L8.03491 75.1515L9.76834 74.0261C17.0111 69.3241 24.5041 68.3092 30.8169 68.9775C36.343 69.5626 41.0274 71.4443 43.9141 73.3352C48.657 68.306 54.8936 65.8032 60.6217 64.9575C63.6659 64.508 66.5987 64.5209 69.1369 64.885C71.6515 65.2456 73.8782 65.9657 75.4389 67.0108L73.8834 69.3177C72.7967 68.5901 71.0225 67.9635 68.7396 67.636C66.4804 67.3119 63.8194 67.2951 61.0305 67.7068ZM42.0012 75.4157C39.4922 73.8709 35.4113 72.259 30.5222 71.7414C25.2805 71.1864 19.1755 71.8961 13.1434 75.2411C23.9014 81.8795 35.4173 81.7787 42.0012 75.4157Z" fill="white"/>
<path fill-rule="evenodd" clip-rule="evenodd" d="M41.0818 95.9435C58.702 95.9435 72.986 81.6454 72.986 64.0078C72.986 55.4267 68.1881 47.5064 61.1102 37.5176C60.1838 36.2102 59.2231 34.873 58.2376 33.5015C52.715 25.8152 46.4159 17.0483 41.0372 6.38394C35.6659 16.7172 29.5497 25.2841 24.1727 32.8157C23.0322 34.4133 21.9249 35.9642 20.8651 37.4756C13.8671 47.4548 9.17748 55.4092 9.17748 64.0078C9.17748 81.6454 23.4615 95.9435 41.0818 95.9435ZM39.5117 3.252C34.031 14.2117 27.6367 23.1709 21.9365 31.1577C13.3852 43.1393 6.39575 52.9324 6.39575 64.0078C6.39575 83.1832 21.9252 98.728 41.0818 98.728C60.2383 98.728 75.7678 83.1832 75.7678 64.0078C75.7678 53.1366 68.8656 43.5272 60.48 31.8525C54.63 23.7079 48.058 14.5581 42.6038 3.27351C42.0858 2.20192 41.578 1.11107 41.0818 0C40.568 1.10351 40.0441 2.1872 39.5117 3.252Z" fill="#A7CBEC"/>
<path d="M27.1834 80.5213C17.0662 80.5213 12.7467 75.8769 9.51294 73.3815C15.1259 94.1077 36.469 97.1578 42.082 97.7123C47.6949 98.2669 62.1084 91.4043 67.3749 85.0963C71.5881 80.0499 73.1958 70.3314 73.4729 66.103C63.7022 61.6419 50.1896 66.103 44.9231 71.9258C40.339 76.994 37.3005 80.5213 27.1834 80.5213Z" fill="#A7CBEC"/>
<path fill-rule="evenodd" clip-rule="evenodd" d="M57.5836 65.1315C52.3239 66.4157 47.6332 68.9832 45.0063 71.8836C44.938 71.959 44.87 72.0341 44.8024 72.1088C42.5965 74.5456 40.7165 76.6224 38.1805 78.1001C35.5642 79.6244 32.2554 80.5085 27.1777 80.5085C22.0969 80.5085 18.4689 79.3436 15.7044 77.8641C13.5958 76.7357 11.9886 75.423 10.6279 74.3115C10.2669 74.0167 9.92332 73.736 9.59228 73.4767C12.4306 83.7002 19.1238 89.5803 25.8203 92.9767C32.5622 96.3962 39.3054 97.2969 42.1145 97.5741C43.507 97.7115 45.4539 97.3895 47.6789 96.7258C49.9021 96.0626 52.3962 95.0605 54.8804 93.8435C59.8508 91.4084 64.771 88.1185 67.4005 84.9731C69.5019 82.4596 70.9569 78.7772 71.9213 75.1888C72.878 71.6288 73.3497 68.1694 73.4922 66.0532C68.624 63.8492 62.8268 63.8513 57.5836 65.1315ZM57.5506 64.9967C62.8294 63.7079 68.6795 63.7062 73.5935 65.9468L73.6371 65.9667L73.634 66.0145C73.4948 68.1344 73.0219 71.6283 72.0554 75.2248C71.0893 78.8197 69.6278 82.5254 67.5071 85.0621C64.8592 88.2294 59.9186 91.5297 54.9415 93.968C52.4519 95.1877 49.9506 96.1929 47.7187 96.8587C45.4886 97.5239 43.5207 97.8522 42.1008 97.7121C39.2851 97.4343 32.5219 96.5314 25.7574 93.1005C18.9913 89.6687 12.2218 83.7064 9.40308 73.312L9.34912 73.113L9.51252 73.239C9.89862 73.5365 10.2992 73.8637 10.7224 74.2093C12.0818 75.3196 13.6745 76.6204 15.77 77.7418C18.5146 79.2106 22.1201 80.3697 27.1777 80.3697C32.2385 80.3697 35.5213 79.4888 38.1105 77.9802C40.6276 76.5136 42.4945 74.4513 44.7058 72.0087C44.7713 71.9363 44.8371 71.8636 44.9033 71.7905C47.5539 68.8639 52.2725 66.2855 57.5506 64.9967Z" fill="#A7CBEC"/>
<defs>
<radialGradient id="paint0_radial_2914_896" cx="0" cy="0" r="1" gradientUnits="userSpaceOnUse" gradientTransform="translate(39.1341 98.7741) rotate(90) scale(8.31934 40.7811)">
<stop stop-color="white"/>
<stop offset="1" stop-opacity="0"/>
</radialGradient>
</defs>
</svg>
