<svg width="201" height="201" viewBox="0 0 201 201" fill="none" xmlns="http://www.w3.org/2000/svg">
<path d="M117.848 99.9609L117.216 99.5869L116.843 100.219L117.474 100.593L117.848 99.9609ZM117.848 99.9609C117.216 99.5869 117.216 99.5867 117.217 99.5864L117.217 99.5849L117.221 99.5789L117.235 99.5546L117.292 99.4579C117.343 99.3724 117.417 99.2452 117.515 99.0788C117.71 98.7461 117.996 98.2566 118.359 97.6302C119.086 96.3776 120.124 94.5777 121.365 92.39C123.847 88.0142 127.143 82.0893 130.397 75.8896C133.653 69.6872 136.861 63.2221 139.173 57.7627C140.329 55.032 141.255 52.5677 141.85 50.5219C142.455 48.4444 142.687 46.9032 142.55 45.9667C142.5 45.6212 142.377 45.5335 142.255 45.4864C142.055 45.4089 141.666 45.3875 141.009 45.5586C139.716 45.8956 137.851 46.8502 135.558 48.3068C131 51.2012 125.018 55.9008 119.049 60.9008C113.087 65.895 107.163 71.1675 102.727 75.1928C100.51 77.2052 98.6658 78.9051 97.3761 80.1017C96.7313 80.7 96.2251 81.1724 95.8803 81.4952C95.7079 81.6565 95.5758 81.7805 95.4869 81.864L95.3863 81.9586L95.361 81.9824L95.3547 81.9884L95.3531 81.9899C95.3528 81.9902 95.3526 81.9903 94.8497 81.4554M117.848 99.9609C117.474 100.593 117.474 100.593 117.475 100.593L117.476 100.594L117.484 100.599L117.515 100.617L117.637 100.69C117.745 100.754 117.905 100.85 118.114 100.975C118.53 101.225 119.141 101.592 119.914 102.061C121.46 102.998 123.657 104.341 126.257 105.963C131.458 109.209 138.271 113.569 144.722 118.034C151.184 122.507 157.247 127.059 160.975 130.69C162.86 132.526 164.055 134.04 164.467 135.133C164.668 135.667 164.638 135.982 164.55 136.168C164.464 136.347 164.238 136.584 163.631 136.766C160.91 137.581 156.197 137.662 150.545 137.28C144.93 136.9 138.5 136.073 132.415 135.137C126.331 134.202 120.604 133.159 116.396 132.35C114.293 131.945 112.57 131.599 111.373 131.355C110.775 131.232 110.308 131.135 109.991 131.069C109.911 131.052 109.84 131.037 109.78 131.024C109.72 131.012 109.671 131.001 109.631 130.993L109.539 130.973L109.516 130.968L109.51 130.967L109.509 130.967C109.508 130.967 109.508 130.967 109.355 131.685L109.508 130.967L108.958 130.849L108.702 131.35L108.873 131.438C108.702 131.35 108.702 131.351 108.702 131.351L108.701 131.352L108.698 131.358L108.685 131.384L108.633 131.485C108.587 131.574 108.519 131.706 108.43 131.879C108.251 132.224 107.987 132.731 107.647 133.377C106.969 134.668 105.989 136.512 104.786 138.723C102.379 143.145 99.0791 149.031 95.5039 154.889C91.9257 160.752 88.0849 166.567 84.5963 170.858C82.8502 173.006 81.2128 174.747 79.7583 175.921C78.2672 177.124 77.1165 177.608 76.3122 177.537C75.6563 177.479 74.9726 176.889 74.3818 175.311C73.8087 173.781 73.4299 171.58 73.2191 168.885C72.7985 163.511 73.06 156.387 73.602 149.25C74.1433 142.121 74.9617 135.014 75.6452 129.687C75.9869 127.023 76.2946 124.806 76.5169 123.256C76.6281 122.48 76.7178 121.871 76.7798 121.457C76.8107 121.249 76.8348 121.091 76.851 120.984L76.8694 120.863L76.8741 120.833L76.8753 120.825L76.8756 120.823C76.8756 120.823 76.8756 120.823 76.1507 120.71M76.1507 120.71L76.8756 120.823L77.0345 119.795L76.0145 119.988L76.1507 120.71ZM76.1507 120.71C76.0145 119.988 76.0144 119.988 76.0141 119.988L76.0127 119.988L76.0065 119.99L75.9815 119.994L75.8817 120.013C75.7933 120.029 75.6616 120.054 75.4894 120.085C75.1448 120.148 74.6378 120.239 73.9891 120.353C72.6918 120.581 70.8282 120.897 68.5657 121.253C64.0396 121.966 57.9216 122.837 51.5473 123.472C45.1683 124.107 38.5551 124.503 33.0314 124.272C30.2688 124.156 27.8009 123.885 25.7811 123.417C23.7446 122.945 22.2468 122.291 21.3455 121.47C20.9382 121.099 20.7778 120.742 20.7498 120.398C20.7204 120.036 20.8299 119.586 21.1528 119.033C21.8099 117.907 23.2124 116.587 25.2431 115.138C29.276 112.26 35.4598 109.098 41.9526 106.152C48.4334 103.212 55.1777 100.505 60.3047 98.5334C62.8674 97.5476 65.0245 96.7459 66.5405 96.1908C67.2985 95.9132 67.8961 95.6974 68.304 95.551C68.3767 95.5249 68.4434 95.501 68.504 95.4793C68.6131 95.4403 68.702 95.4086 68.7698 95.3845L68.889 95.3422L68.9189 95.3316L68.9264 95.3289L68.9282 95.3283C68.9286 95.3282 68.9287 95.3281 68.685 94.6351M68.685 94.6351L68.9287 95.3281L69.5855 95.0965L69.3886 94.4275L68.685 94.6351ZM68.685 94.6351C69.3886 94.4275 69.3886 94.4274 69.3885 94.4271L69.3881 94.4258L69.3865 94.4201L69.3797 94.397L69.3528 94.305C69.3291 94.2236 69.2939 94.1024 69.2482 93.9442C69.1568 93.6276 69.0236 93.1624 68.8562 92.5691C68.5213 91.3824 68.0502 89.6833 67.5051 87.6353C66.4147 83.5383 65.0301 78.0502 63.8506 72.4778C62.6696 66.8981 61.7007 61.2637 61.4317 56.8636C61.2969 54.6585 61.3411 52.8077 61.6032 51.444C61.8754 50.027 62.3324 49.3872 62.7889 49.1915C63.2784 48.9816 64.1255 49.0801 65.4294 49.7731C66.6875 50.4418 68.1828 51.564 69.836 53.0271C73.136 55.9478 76.9476 60.1209 80.5748 64.4063C84.1977 68.6865 87.6182 73.0569 90.1342 76.3589C91.3918 78.0094 92.4227 79.392 93.1389 80.3616C93.497 80.8464 93.7764 81.2278 93.9661 81.4879C93.9876 81.5175 94.008 81.5454 94.0272 81.5718C94.0926 81.6615 94.1444 81.7328 94.1819 81.7846L94.2369 81.8604L94.2506 81.8795L94.254 81.8841L94.2548 81.8853C94.255 81.8855 94.255 81.8856 94.8497 81.4554M94.8497 81.4554L94.255 81.8856L94.7444 82.5639L95.3526 81.9903L94.8497 81.4554Z" stroke="white" stroke-width="1.46831"/>
<mask id="path-2-inside-1_2549_1164" fill="white">
<ellipse cx="1.31997" cy="1.97519" rx="1.31997" ry="1.97519" transform="matrix(0.986553 -0.163439 0.162975 0.98663 65.2599 58.2769)"/>
</mask>
<path d="M66.7377 60.0341C66.7858 60.3255 66.7371 60.5373 66.6951 60.63C66.6756 60.6729 66.6715 60.6607 66.7106 60.6258C66.7552 60.586 66.8428 60.5305 66.9666 60.51L67.4452 63.4074C68.4382 63.2429 69.0619 62.5206 69.3698 61.8407C69.6827 61.15 69.7645 60.3391 69.6348 59.5542L66.7377 60.0341ZM66.9666 60.51C67.0905 60.4895 67.1912 60.5138 67.2462 60.5371C67.2945 60.5575 67.2945 60.5704 67.2622 60.536C67.1928 60.4618 67.0785 60.277 67.0304 59.9857L64.1332 60.4656C64.2629 61.2506 64.6011 61.9918 65.1194 62.5449C65.6296 63.0893 66.4522 63.5719 67.4452 63.4074L66.9666 60.51ZM67.0304 59.9857C66.9822 59.6943 67.031 59.4825 67.0729 59.3899C67.0924 59.3469 67.0965 59.3591 67.0574 59.394C67.0128 59.4338 66.9253 59.4893 66.8014 59.5098L66.3228 56.6124C65.3298 56.7769 64.7062 57.4992 64.3982 58.1791C64.0854 58.8698 64.0036 59.6807 64.1332 60.4656L67.0304 59.9857ZM66.8014 59.5098C66.6775 59.5303 66.5768 59.506 66.5218 59.4827C66.4736 59.4623 66.4735 59.4494 66.5058 59.4838C66.5753 59.558 66.6896 59.7428 66.7377 60.0341L69.6348 59.5542C69.5051 58.7692 69.167 58.028 68.6486 57.4749C68.1385 56.9305 67.3158 56.4479 66.3228 56.6124L66.8014 59.5098Z" fill="white" mask="url(#path-2-inside-1_2549_1164)"/>
<mask id="path-4-inside-2_2549_1164" fill="white">
<ellipse cx="1.32121" cy="1.97334" rx="1.32121" ry="1.97334" transform="matrix(0.594219 0.804304 -0.803452 0.595369 132.331 58.8511)"/>
</mask>
<path d="M131.443 60.9703C131.207 61.1454 130.997 61.1983 130.896 61.2031C130.849 61.2053 130.858 61.1961 130.907 61.215C130.962 61.2365 131.051 61.2889 131.125 61.3893L128.765 63.1376C129.363 63.9464 130.288 64.1737 131.033 64.1384C131.79 64.1026 132.549 63.8059 133.188 63.3322L131.443 60.9703ZM131.125 61.3893C131.199 61.4896 131.223 61.5898 131.228 61.6492C131.231 61.7012 131.22 61.7071 131.236 61.6629C131.27 61.5676 131.382 61.3821 131.618 61.2069L129.873 58.845C129.234 59.3187 128.729 59.9585 128.473 60.673C128.221 61.3765 128.168 62.3289 128.765 63.1376L131.125 61.3893ZM131.618 61.2069C131.854 61.0317 132.064 60.9789 132.165 60.9741C132.212 60.9719 132.203 60.9811 132.155 60.9622C132.099 60.9407 132.011 60.8883 131.936 60.7879L134.296 59.0395C133.698 58.2308 132.773 58.0035 132.028 58.0388C131.271 58.0746 130.512 58.3713 129.873 58.845L131.618 61.2069ZM131.936 60.7879C131.862 60.6876 131.838 60.5874 131.834 60.528C131.83 60.476 131.841 60.4701 131.826 60.5143C131.791 60.6096 131.68 60.7951 131.443 60.9703L133.188 63.3322C133.828 62.8585 134.333 62.2187 134.588 61.5042C134.84 60.8007 134.893 59.8483 134.296 59.0395L131.936 60.7879Z" fill="white" mask="url(#path-4-inside-2_2549_1164)"/>
<mask id="path-6-inside-3_2549_1164" fill="white">
<ellipse cx="1.32125" cy="1.97328" rx="1.32125" ry="1.97328" transform="matrix(-0.570625 0.821211 -0.820404 -0.571785 143.928 127.729)"/>
</mask>
<path d="M141.639 127.564C141.398 127.396 141.281 127.214 141.244 127.12C141.227 127.076 141.238 127.082 141.236 127.134C141.233 127.193 141.212 127.294 141.141 127.397L138.732 125.717C138.158 126.543 138.239 127.494 138.511 128.189C138.787 128.896 139.311 129.521 139.963 129.976L141.639 127.564ZM141.141 127.397C141.07 127.499 140.983 127.554 140.928 127.577C140.88 127.597 140.871 127.588 140.918 127.589C141.019 127.591 141.23 127.638 141.471 127.806L143.147 125.394C142.494 124.939 141.727 124.665 140.97 124.651C140.223 124.638 139.305 124.892 138.732 125.717L141.141 127.397ZM141.471 127.806C141.713 127.974 141.83 128.156 141.867 128.251C141.884 128.294 141.872 128.289 141.874 128.237C141.877 128.177 141.898 128.076 141.969 127.974L144.379 129.653C144.952 128.827 144.871 127.877 144.599 127.181C144.323 126.474 143.8 125.849 143.147 125.394L141.471 127.806ZM141.969 127.974C142.041 127.872 142.128 127.817 142.182 127.793C142.23 127.773 142.24 127.782 142.193 127.781C142.092 127.779 141.88 127.733 141.639 127.564L139.963 129.976C140.616 130.431 141.383 130.706 142.141 130.719C142.887 130.733 143.805 130.479 144.379 129.653L141.969 127.974Z" fill="white" mask="url(#path-6-inside-3_2549_1164)"/>
<mask id="path-8-inside-4_2549_1164" fill="white">
<ellipse cx="1.32012" cy="1.97498" rx="1.32012" ry="1.97498" transform="matrix(-0.951427 -0.307874 0.307028 -0.9517 81.85 165.574)"/>
</mask>
<path d="M81.3413 163.334C81.432 163.053 81.5723 162.887 81.6519 162.824C81.6889 162.795 81.6869 162.808 81.6362 162.821C81.5784 162.836 81.4753 162.845 81.3559 162.806L82.2575 160.011C81.3 159.701 80.4152 160.057 79.8301 160.519C79.2357 160.99 78.7916 161.673 78.5474 162.43L81.3413 163.334ZM81.3559 162.806C81.2365 162.767 81.1582 162.7 81.12 162.654C81.0865 162.613 81.0924 162.602 81.1053 162.647C81.1331 162.745 81.15 162.962 81.0594 163.243L83.8533 164.147C84.0976 163.39 84.1365 162.575 83.9292 161.846C83.7251 161.128 83.2151 160.321 82.2575 160.011L81.3559 162.806ZM81.0594 163.243C80.9687 163.523 80.8285 163.689 80.7488 163.752C80.7119 163.782 80.7138 163.769 80.7645 163.756C80.8223 163.741 80.9254 163.732 81.0448 163.77L80.1432 166.565C81.1007 166.875 81.9856 166.52 82.5706 166.057C83.165 165.587 83.6091 164.904 83.8533 164.147L81.0594 163.243ZM81.0448 163.77C81.1642 163.809 81.2425 163.877 81.2807 163.923C81.3142 163.963 81.3083 163.975 81.2954 163.929C81.2676 163.831 81.2507 163.615 81.3413 163.334L78.5474 162.43C78.3031 163.187 78.2642 164.001 78.4715 164.731C78.6756 165.449 79.1856 166.255 80.1432 166.565L81.0448 163.77Z" fill="white" mask="url(#path-8-inside-4_2549_1164)"/>
<mask id="path-10-inside-5_2549_1164" fill="white">
<ellipse cx="1.32191" cy="1.9723" rx="1.32191" ry="1.9723" transform="matrix(0.00446581 -0.99999 0.99999 0.00449233 37.0955 118.748)"/>
</mask>
<path d="M39.073 117.581C39.3666 117.583 39.5659 117.666 39.6495 117.723C39.6883 117.749 39.6756 117.751 39.648 117.707C39.6166 117.656 39.5771 117.562 39.5776 117.437L42.5142 117.45C42.5187 116.445 41.9139 115.709 41.2953 115.291C40.6672 114.865 39.8818 114.648 39.0861 114.645L39.073 117.581ZM39.5776 117.437C39.5782 117.313 39.6185 117.219 39.6504 117.169C39.6784 117.125 39.691 117.127 39.6521 117.153C39.568 117.208 39.3679 117.29 39.0743 117.289L39.0612 120.225C39.8568 120.229 40.6442 120.019 41.2761 119.599C41.8984 119.186 42.5097 118.456 42.5142 117.45L39.5776 117.437ZM39.0743 117.289C38.7807 117.287 38.5813 117.204 38.4978 117.147C38.459 117.121 38.4717 117.119 38.4993 117.163C38.5307 117.214 38.5702 117.308 38.5697 117.433L35.6331 117.42C35.6286 118.425 36.2333 119.161 36.8519 119.579C37.4801 120.005 38.2655 120.222 39.0612 120.225L39.0743 117.289ZM38.5697 117.433C38.5691 117.557 38.5287 117.651 38.4969 117.701C38.4689 117.745 38.4563 117.743 38.4952 117.717C38.5793 117.662 38.7794 117.58 39.073 117.581L39.0861 114.645C38.2904 114.641 37.5031 114.851 36.8712 115.271C36.2489 115.684 35.6376 116.415 35.6331 117.42L38.5697 117.433Z" fill="white" mask="url(#path-10-inside-5_2549_1164)"/>
<mask id="path-12-inside-6_2549_1164" fill="white">
<ellipse cx="1.31997" cy="1.97519" rx="1.31997" ry="1.97519" transform="matrix(0.986553 -0.163439 0.162975 0.98663 68.5223 66.5586)"/>
</mask>
<path d="M70.0001 68.3159C70.0483 68.6072 69.9995 68.8191 69.9576 68.9117C69.9381 68.9547 69.934 68.9424 69.9731 68.9075C70.0177 68.8678 70.1052 68.8123 70.2291 68.7917L70.7077 71.6891C71.7007 71.5246 72.3243 70.8024 72.6322 70.1225C72.9451 69.4317 73.0269 68.6209 72.8973 67.8359L70.0001 68.3159ZM70.2291 68.7917C70.3529 68.7712 70.4537 68.7955 70.5087 68.8188C70.5569 68.8392 70.5569 68.8521 70.5247 68.8177C70.4552 68.7436 70.3409 68.5587 70.2928 68.2674L67.3957 68.7474C67.5253 69.5323 67.8635 70.2736 68.3819 70.8266C68.892 71.371 69.7147 71.8536 70.7077 71.6891L70.2291 68.7917ZM70.2928 68.2674C70.2447 67.9761 70.2934 67.7642 70.3354 67.6716C70.3548 67.6286 70.359 67.6409 70.3199 67.6757C70.2753 67.7155 70.1877 67.771 70.0639 67.7915L69.5853 64.8942C68.5923 65.0587 67.9686 65.7809 67.6607 66.4608C67.3478 67.1516 67.266 67.9624 67.3957 68.7474L70.2928 68.2674ZM70.0639 67.7915C69.94 67.8121 69.8393 67.7877 69.7843 67.7645C69.736 67.7441 69.736 67.7311 69.7682 67.7655C69.8377 67.8397 69.952 68.0246 70.0001 68.3159L72.8973 67.8359C72.7676 67.051 72.4294 66.3097 71.9111 65.7566C71.4009 65.2123 70.5783 64.7297 69.5853 64.8942L70.0639 67.7915Z" fill="white" mask="url(#path-12-inside-6_2549_1164)"/>
<mask id="path-14-inside-7_2549_1164" fill="white">
<ellipse cx="1.32121" cy="1.97333" rx="1.32121" ry="1.97333" transform="matrix(0.594218 0.804304 -0.803452 0.59537 126.456 65.5327)"/>
</mask>
<path d="M125.569 67.6519C125.332 67.8271 125.122 67.8799 125.021 67.8847C124.974 67.8869 124.983 67.8777 125.032 67.8966C125.087 67.9181 125.176 67.9706 125.25 68.0709L122.891 69.8193C123.488 70.6281 124.413 70.8554 125.159 70.8201C125.916 70.7842 126.674 70.4876 127.313 70.0139L125.569 67.6519ZM125.25 68.0709C125.324 68.1713 125.348 68.2715 125.353 68.3308C125.357 68.3829 125.345 68.3888 125.361 68.3445C125.395 68.2492 125.507 68.0637 125.743 67.8885L123.998 65.5266C123.359 66.0003 122.854 66.6401 122.598 67.3546C122.347 68.0581 122.293 69.0105 122.891 69.8193L125.25 68.0709ZM125.743 67.8885C125.98 67.7134 126.19 67.6605 126.291 67.6557C126.337 67.6535 126.328 67.6627 126.28 67.6439C126.224 67.6223 126.136 67.5699 126.062 67.4696L128.421 65.7212C127.824 64.9124 126.899 64.6851 126.153 64.7204C125.396 64.7562 124.638 65.0529 123.998 65.5266L125.743 67.8885ZM126.062 67.4696C125.988 67.3692 125.963 67.269 125.959 67.2097C125.955 67.1576 125.967 67.1517 125.951 67.1959C125.917 67.2912 125.805 67.4768 125.569 67.6519L127.313 70.0139C127.953 69.5402 128.458 68.9004 128.713 68.1859C128.965 67.4824 129.019 66.53 128.421 65.7212L126.062 67.4696Z" fill="white" mask="url(#path-14-inside-7_2549_1164)"/>
<mask id="path-16-inside-8_2549_1164" fill="white">
<ellipse cx="1.32125" cy="1.97328" rx="1.32125" ry="1.97328" transform="matrix(-0.570625 0.821211 -0.820404 -0.571785 135.727 124.293)"/>
</mask>
<path d="M133.438 124.129C133.196 123.961 133.079 123.779 133.042 123.684C133.025 123.641 133.037 123.646 133.035 123.698C133.032 123.758 133.011 123.859 132.94 123.961L130.53 122.282C129.957 123.108 130.038 124.058 130.31 124.754C130.586 125.461 131.109 126.086 131.762 126.541L133.438 124.129ZM132.94 123.961C132.868 124.063 132.781 124.118 132.727 124.142C132.679 124.162 132.669 124.153 132.716 124.154C132.817 124.156 133.029 124.202 133.27 124.37L134.946 121.959C134.293 121.504 133.526 121.229 132.768 121.216C132.022 121.202 131.104 121.456 130.53 122.282L132.94 123.961ZM133.27 124.37C133.511 124.539 133.628 124.721 133.665 124.815C133.682 124.859 133.671 124.853 133.673 124.801C133.676 124.742 133.697 124.641 133.768 124.538L136.177 126.218C136.751 125.392 136.67 124.441 136.398 123.745C136.122 123.039 135.598 122.414 134.946 121.959L133.27 124.37ZM133.768 124.538C133.839 124.436 133.926 124.381 133.981 124.358C134.029 124.338 134.038 124.347 133.991 124.346C133.89 124.344 133.679 124.297 133.438 124.129L131.762 126.541C132.415 126.995 133.182 127.27 133.939 127.284C134.686 127.297 135.604 127.043 136.177 126.218L133.768 124.538Z" fill="white" mask="url(#path-16-inside-8_2549_1164)"/>
<mask id="path-18-inside-9_2549_1164" fill="white">
<ellipse cx="1.32012" cy="1.97498" rx="1.32012" ry="1.97498" transform="matrix(-0.951427 -0.307875 0.307028 -0.9517 86.4338 152.399)"/>
</mask>
<path d="M85.9252 150.159C86.0158 149.878 86.1561 149.712 86.2358 149.649C86.2727 149.62 86.2708 149.632 86.2201 149.645C86.1623 149.66 86.0592 149.669 85.9398 149.631L86.8414 146.836C85.8839 146.526 84.999 146.881 84.414 147.344C83.8196 147.814 83.3755 148.497 83.1312 149.254L85.9252 150.159ZM85.9398 149.631C85.8204 149.592 85.7421 149.524 85.7039 149.478C85.6704 149.438 85.6763 149.427 85.6892 149.472C85.717 149.57 85.7338 149.786 85.6432 150.067L88.4372 150.971C88.6815 150.214 88.7204 149.4 88.5131 148.671C88.309 147.952 87.7989 147.146 86.8414 146.836L85.9398 149.631ZM85.6432 150.067C85.5526 150.348 85.4123 150.514 85.3327 150.577C85.2957 150.606 85.2977 150.593 85.3483 150.58C85.4062 150.566 85.5093 150.556 85.6287 150.595L84.727 153.39C85.6846 153.7 86.5694 153.345 87.1545 152.882C87.7489 152.412 88.1929 151.729 88.4372 150.971L85.6432 150.067ZM85.6287 150.595C85.748 150.634 85.8263 150.702 85.8646 150.747C85.898 150.788 85.8922 150.799 85.8793 150.754C85.8515 150.656 85.8346 150.439 85.9252 150.159L83.1312 149.254C82.887 150.012 82.848 150.826 83.0554 151.555C83.2595 152.273 83.7695 153.08 84.727 153.39L85.6287 150.595Z" fill="white" mask="url(#path-18-inside-9_2549_1164)"/>
<mask id="path-20-inside-10_2549_1164" fill="white">
<ellipse cx="1.32191" cy="1.9723" rx="1.32191" ry="1.9723" transform="matrix(0.00446581 -0.99999 0.99999 0.00449233 45.7948 116.916)"/>
</mask>
<path d="M47.7723 115.749C48.0659 115.75 48.2653 115.833 48.3488 115.89C48.3876 115.916 48.3749 115.918 48.3474 115.874C48.3159 115.824 48.2764 115.729 48.277 115.605L51.2136 115.618C51.218 114.613 50.6133 113.877 49.9947 113.458C49.3666 113.033 48.5811 112.816 47.7854 112.812L47.7723 115.749ZM48.277 115.605C48.2775 115.48 48.3179 115.386 48.3498 115.336C48.3777 115.292 48.3904 115.294 48.3514 115.32C48.2673 115.376 48.0672 115.457 47.7736 115.456L47.7605 118.393C48.5562 118.396 49.3435 118.186 49.9754 117.767C50.5978 117.354 51.2091 116.623 51.2136 115.618L48.277 115.605ZM47.7736 115.456C47.48 115.455 47.2807 115.371 47.1971 115.315C47.1584 115.289 47.171 115.287 47.1986 115.331C47.23 115.381 47.2696 115.476 47.269 115.6L44.3324 115.587C44.3279 116.592 44.9327 117.328 45.5513 117.747C46.1794 118.172 46.9649 118.389 47.7605 118.393L47.7736 115.456ZM47.269 115.6C47.2684 115.725 47.2281 115.819 47.1962 115.869C47.1682 115.913 47.1556 115.911 47.1946 115.885C47.2786 115.829 47.4787 115.748 47.7723 115.749L47.7854 112.812C46.9898 112.809 46.2024 113.019 45.5705 113.438C44.9482 113.851 44.3369 114.582 44.3324 115.587L47.269 115.6Z" fill="white" mask="url(#path-20-inside-10_2549_1164)"/>
<path d="M75.9005 77.1674C76.0009 77.775 75.9205 78.3198 75.7472 78.7023C75.5715 79.0903 75.3453 79.2348 75.1735 79.2632C75.0018 79.2917 74.7412 79.2279 74.45 78.9172C74.163 78.611 73.9117 78.1211 73.8113 77.5135C73.711 76.9059 73.7914 76.3611 73.9646 75.9785C74.1403 75.5906 74.3665 75.4461 74.5383 75.4176C74.7101 75.3892 74.9707 75.453 75.2618 75.7636C75.5488 76.0699 75.8002 76.5598 75.9005 77.1674Z" stroke="white" stroke-width="1.46831"/>
<path d="M120.389 76.9446C119.895 77.3107 119.374 77.4871 118.955 77.5069C118.531 77.527 118.299 77.3913 118.195 77.2504C118.091 77.1095 118.029 76.8476 118.172 76.4469C118.314 76.0516 118.634 75.6047 119.128 75.2386C119.622 74.8726 120.143 74.6961 120.562 74.6763C120.986 74.6562 121.218 74.7919 121.322 74.9328C121.427 75.0737 121.488 75.3356 121.345 75.7363C121.204 76.1316 120.883 76.5785 120.389 76.9446Z" stroke="white" stroke-width="1.46831"/>
<path d="M122.989 122.189C122.485 121.837 122.151 121.4 121.999 121.009C121.844 120.612 121.898 120.349 121.998 120.205C122.098 120.061 122.326 119.919 122.751 119.926C123.17 119.934 123.695 120.095 124.2 120.447C124.704 120.798 125.038 121.236 125.191 121.627C125.345 122.023 125.291 122.287 125.191 122.431C125.091 122.574 124.863 122.717 124.438 122.709C124.019 122.701 123.494 122.54 122.989 122.189Z" stroke="white" stroke-width="1.46831"/>
<path d="M88.736 138.651C88.925 138.065 89.2459 137.618 89.575 137.358C89.9088 137.094 90.176 137.069 90.3418 137.123C90.5076 137.176 90.71 137.353 90.8264 137.763C90.9412 138.167 90.9402 138.717 90.7512 139.303C90.5621 139.889 90.2412 140.337 89.9121 140.597C89.5783 140.861 89.3111 140.885 89.1453 140.832C88.9795 140.778 88.7771 140.602 88.6607 140.192C88.5459 139.788 88.5469 139.237 88.736 138.651Z" stroke="white" stroke-width="1.46831"/>
<path d="M57.4745 111.408C58.0888 111.411 58.6112 111.581 58.9584 111.816C59.3104 112.054 59.4155 112.302 59.4147 112.478C59.4139 112.654 59.3066 112.901 58.9525 113.136C58.6032 113.368 58.0793 113.534 57.4651 113.531C56.8508 113.528 56.3284 113.358 55.9812 113.123C55.6292 112.884 55.5241 112.636 55.5249 112.461C55.5257 112.285 55.633 112.038 55.9871 111.803C56.3364 111.571 56.8602 111.405 57.4745 111.408Z" stroke="white" stroke-width="1.46831"/>
<path d="M81.1887 88.0798C81.3456 89.0294 81.2239 89.8991 80.9383 90.5305C80.6502 91.1673 80.2406 91.4842 79.8414 91.5503C79.4422 91.6165 78.9526 91.4486 78.475 90.9386C78.0016 90.433 77.6068 89.6488 77.4499 88.6992C77.293 87.7496 77.4147 86.8799 77.7003 86.2486C77.9884 85.6117 78.398 85.2949 78.7972 85.2287C79.1964 85.1626 79.6861 85.3305 80.1636 85.8405C80.637 86.3461 81.0319 87.1302 81.1887 88.0798Z" stroke="white" stroke-width="1.46831"/>
<path d="M113.099 86.6313C112.327 87.2035 111.498 87.4912 110.807 87.5243C110.11 87.5576 109.642 87.3369 109.4 87.0104C109.159 86.6839 109.086 86.1704 109.321 85.5126C109.555 84.8604 110.072 84.1514 110.844 83.5792C111.616 83.007 112.444 82.7193 113.135 82.6862C113.832 82.653 114.301 82.8736 114.542 83.2001C114.784 83.5266 114.857 84.0401 114.622 84.6979C114.388 85.3501 113.871 86.0591 113.099 86.6313Z" stroke="white" stroke-width="1.46831"/>
<path d="M111.493 118.372C110.704 117.823 110.167 117.129 109.915 116.484C109.66 115.833 109.719 115.318 109.95 114.984C110.182 114.651 110.644 114.417 111.342 114.43C112.034 114.443 112.87 114.706 113.658 115.256C114.447 115.805 114.984 116.499 115.236 117.144C115.491 117.795 115.432 118.31 115.201 118.644C114.969 118.977 114.507 119.211 113.809 119.198C113.118 119.185 112.281 118.922 111.493 118.372Z" stroke="white" stroke-width="1.46831"/>
<path d="M91.8692 125.261C92.1647 124.345 92.6711 123.628 93.214 123.199C93.7616 122.765 94.2707 122.672 94.6558 122.796C95.041 122.921 95.3992 123.295 95.59 123.967C95.7791 124.634 95.7709 125.512 95.4755 126.428C95.18 127.344 94.6736 128.061 94.1308 128.491C93.5831 128.924 93.074 129.018 92.6889 128.893C92.3037 128.769 91.9455 128.394 91.7547 127.722C91.5656 127.055 91.5738 126.177 91.8692 125.261Z" stroke="white" stroke-width="1.46831"/>
<path d="M69.103 108.016C70.0634 108.02 70.8986 108.286 71.4719 108.674C72.0501 109.064 72.2941 109.522 72.2923 109.929C72.2905 110.336 72.0424 110.791 71.4608 111.177C70.884 111.559 70.0464 111.818 69.086 111.813C68.1256 111.809 67.2904 111.543 66.717 111.156C66.1389 110.765 65.8948 110.307 65.8967 109.9C65.8985 109.493 66.1466 109.038 66.7282 108.652C67.305 108.27 68.1426 108.012 69.103 108.016Z" stroke="white" stroke-width="1.46831"/>
<path d="M98.9927 105.965C98.8228 107.78 98.1259 109.343 97.1721 110.407C96.2182 111.471 95.0472 112.002 93.8847 111.893C92.7222 111.783 91.6701 111.044 90.9303 109.821C90.1906 108.598 89.7959 106.932 89.9658 105.117C90.1357 103.302 90.8326 101.739 91.7864 100.675C92.7403 99.6109 93.9113 99.0806 95.0738 99.1897C96.2363 99.2989 97.2884 100.038 98.0282 101.261C98.768 102.484 99.1626 104.15 98.9927 105.965Z" stroke="white" stroke-width="1.46831"/>
</svg>
