<svg width="185" height="258" viewBox="0 0 185 258" fill="none" xmlns="http://www.w3.org/2000/svg">
<path d="M-3.74213 179.479C-20.0518 192.385 -28.5953 201.285 -32.3516 220.873C-34.1352 230.175 -37.9861 249.575 -57.4152 256.493C-44.6999 259.159 -26.0371 250.609 -19.496 247.262C14.7448 229.741 12.9022 229.578 26.5997 179.479M-28.644 209.919C-57.0351 196.666 -91.6428 167.817 -90.801 101.192C-89.6676 95.2374 -90.8463 80.5176 -104.628 69.2716C-121.855 55.2142 -114.391 -2.35851 -114.391 2.26329C-114.391 17.4483 -70.9509 36.4357 -73.1205 50.9864C-65.5107 44.2689 -41.7488 31.4892 -7.57942 34.1104C-34.7964 35.2341 -24.4245 70.5047 -64.0859 77.2692C-72.6995 81.3326 -79.9401 90.3989 -64.0859 107.677C-51.2189 121.699 -32.3516 124.693 -32.3516 124.693C-32.3516 124.693 7.04091 126.737 64.0331 95.275C81.3329 85.7249 89.1681 71.6909 116.783 60.0786C134.917 52.4532 169.284 36.182 179.62 46.3006C189.957 56.4191 179.62 69.2716 172.966 86.3966C130.123 196.654 94.9255 193.446 64.0331 206.36L35.3427 215.556C27.6562 217.836 19.7848 220.109 13.9628 220.7" stroke="white" stroke-width="2"/>
<path d="M34.6628 215.908C27.9382 230.4 17.4939 249.054 1.66565 255.932C21.818 249.66 59.1371 239.831 64.0333 206.008" stroke="white" stroke-width="2"/>
<path d="M182.26 49.6851C159.959 62.6151 121.22 120.078 103.572 137.165C79.4232 160.546 -64.8145 206.184 -85.798 143.437" stroke="white" stroke-width="2"/>
</svg>
